<svg viewBox="0 0 127 47" width="5.5em" height="2em" color="#cc0000">
  <g fill="currentColor" fill-rule="nonzero">
    <path
      d="M119.111 15.832c0-1.165-1.304-1.933-3.566-1.933-6.705 0-13.581 6.293-14.974 9.257 8.01-.27 18.538-2.425 18.538-7.324m-1.56-3.368c3.915 0 8.53.72 8.53 3.19 0 6.114-16.631 8.222-25.943 8.678a8.22 8.22 0 0 0-.697 3.46c0 2.249 3.047 3.46 7.14 3.46 5.048 0 10.183-1.708 15.147-4.18l1.219.766c-5.749 3.28-12.101 5.837-19.763 5.837-8.01 0-10.708-3.05-10.708-6.064 0-7.188 12.452-15.14 25.075-15.14M86.023 15.832c0-1.165-1.309-1.933-3.571-1.933-6.705 0-13.58 6.293-14.972 9.257 8.009-.27 18.538-2.425 18.538-7.324m-1.568-3.368c3.92 0 8.533.72 8.533 3.19 0 6.114-16.63 8.222-25.943 8.678a8.162 8.162 0 0 0-.698 3.46c0 2.249 3.047 3.46 7.139 3.46 5.05 0 10.188-1.708 15.148-4.18l1.22.766c-5.746 3.28-12.104 5.837-19.764 5.837-8.008 0-10.708-3.05-10.708-6.064 0-7.188 12.45-15.14 25.073-15.14M61.77 13c1.829 0 2.699.543 2.699 1.533a3.55 3.55 0 0 1-3.657 3.32c-1.045 0-2.169-.179-3.22-.179-6.007 0-12.187 8.717-15.06 13.3l-1.578 2.875c-.158.312-1.556.357-3.116.357-1.134 0-2.783-.394-2.783-.807a.807.807 0 0 1 .172-.406L42.093 20.6c.438-.718 1.048-1.972 1.048-2.65 0-.494-.523-1.168-1.655-1.168-2.35 0-5.916 2.112-7.31 3.01l-1.134-.77c2.169-1.664 8.874-6.025 13.145-6.025 2.17 0 3.572.497 3.572 1.71 0 .493-.351 1.347-.874 2.337l-3.307 6.159h.174C48.102 20.912 56.286 13 61.77 13M41.462 2.116c0 .641-.871 2.197-2.44 2.197-1.652 0-3.48-.915-5.481-.915-5.311 0-6.88 3.11-8.098 5.72l-3.047 6.268h9.577l-1.038 1.874h-9.497L6.902 45.216l-5.313.822-.262-.274 13.41-28.506H6.902l.96-1.872h7.656c2.796-5.08 5.048-8.878 13.05-12.536C30.936 1.753 34.587.653 37.894.653c1.741 0 3.57.367 3.57 1.463">
    </path>
    <path
      d="M93.038 27.603c0-7.083 12.6-14.575 24.511-14.575 3.674 0 7.965.688 7.965 2.627 0 4.754-12.759 7.494-25.404 8.105a.57.57 0 0 0-.49.333 8.75 8.75 0 0 0-.745 3.692c0 2.483 2.959 4.025 7.703 4.025 4.552 0 9.5-1.349 15.108-4.102l.139.085c-6.627 3.652-12.425 5.31-18.643 5.31-6.352 0-10.144-2.056-10.144-5.5m6.944-10.751c-5.128 3.155-8.072 7.074-8.072 10.746 0 1.555.813 6.628 11.272 6.628 6.696 0 12.876-1.824 20.04-5.917a.564.564 0 0 0 .022-.968l-1.218-.763a.568.568 0 0 0-.552-.028c-5.57 2.773-10.452 4.12-14.896 4.12-3.993 0-6.574-1.136-6.574-2.895a7.766 7.766 0 0 1 .526-2.917c6.595-.339 26.112-1.972 26.112-9.213 0-3.388-6.36-3.747-9.093-3.747a34.452 34.452 0 0 0-17.567 4.954">
    </path>
    <path
      d="M115.538 14.463c1.824 0 3.001.539 3.001 1.37 0 3.88-8.364 6.26-16.96 6.704 1.992-2.91 7.928-8.085 13.953-8.085m-15.485 8.452a.566.566 0 0 0 .528.805c7.09-.241 19.086-2.17 19.086-7.889 0-1.207-1.084-2.496-4.13-2.496-6.81 0-13.897 6.204-15.484 9.58M59.947 27.603c0-7.083 12.597-14.575 24.509-14.575 3.676 0 7.969.688 7.969 2.627 0 4.746-12.76 7.507-25.4 8.099-.213.01-.401.14-.488.333a8.707 8.707 0 0 0-.747 3.692c0 2.483 2.958 4.025 7.703 4.025 4.555 0 9.503-1.349 15.11-4.104l.138.087c-6.624 3.652-12.424 5.31-18.644 5.31-6.352 0-10.144-2.056-10.144-5.5m-1.128 0c0 1.556.812 6.629 11.272 6.629 6.705 0 12.88-1.824 20.044-5.917a.564.564 0 0 0 .02-.968l-1.22-.763a.564.564 0 0 0-.551-.028c-5.567 2.773-10.44 4.12-14.897 4.12-3.994 0-6.575-1.136-6.575-2.895a7.736 7.736 0 0 1 .527-2.917c6.594-.339 26.114-1.972 26.114-9.213 0-3.388-6.362-3.747-9.097-3.747-12.699 0-25.637 7.926-25.637 15.703">
    </path>
    <path
      d="M82.452 14.463c1.826 0 3.007.539 3.007 1.37 0 3.88-8.365 6.26-16.96 6.704 1.992-2.91 7.928-8.085 13.951-8.085m-15.483 8.452a.566.566 0 0 0 .529.805c7.1-.241 19.09-2.17 19.09-7.889 0-1.207-1.087-2.496-4.142-2.496-6.811 0-13.895 6.204-15.483 9.58M45.752 23.766a.566.566 0 0 0 .394-.16c8.514-8.3 13.197-10.042 15.625-10.042 1.416 0 2.134.326 2.134.969a2.994 2.994 0 0 1-3.093 2.76c-.499 0-1.015-.041-1.563-.088-.549-.048-1.11-.091-1.657-.091-5.812 0-11.657 7.376-15.538 13.564l-.018.03-1.508 2.76c-.27.113-1.166.172-2.698.172a6.198 6.198 0 0 1-2.114-.383l6.872-12.39c.407-.67 1.117-2.067 1.117-2.925 0-.858-.83-1.731-2.219-1.731-2.366 0-5.7 1.895-7.297 2.9l-.163-.11c2.522-1.8 8.387-5.439 12.165-5.439 1.123 0 3.008.148 3.008 1.146 0 .162-.079.688-.809 2.075l-3.305 6.149a.564.564 0 0 0 .497.832l.17.002zm1.79-3.03l1.84-3.42c.844-1.602.94-2.255.94-2.606 0-1.037-.715-2.274-4.14-2.274-4.475 0-11.255 4.431-13.49 6.141a.564.564 0 0 0 .028.915l1.134.762a.564.564 0 0 0 .621 0c1.063-.685 4.712-2.92 7.005-2.92.832 0 1.09.443 1.09.604 0 .478-.5 1.596-.964 2.367L34.72 32.729a.197.197 0 0 1 .02-.034 1.313 1.313 0 0 0-.263.712c0 1.29 3.313 1.38 3.353 1.38 2.593 0 3.339-.131 3.626-.646l1.562-2.862c3.055-4.87 9.003-13.015 14.574-13.015.499 0 1.016.043 1.564.088.548.046 1.11.091 1.656.091 2.982 0 4.22-2.53 4.22-3.885 0-.956-.565-2.096-3.261-2.096-3.432 0-8.214 2.796-14.229 8.3v-.025zM15.518 15.95a.562.562 0 0 0 .495-.293c2.926-5.325 5.111-8.784 12.799-12.296 2.123-.986 5.774-2.144 9.08-2.144 1.715 0 3.006.394 3.006.9 0 .31-.625 1.632-1.875 1.632-.718 0-1.507-.197-2.34-.408-.987-.249-2.024-.509-3.142-.509-5.787 0-7.494 3.639-8.609 6.047l-3.042 6.26a.564.564 0 0 0 .506.811h8.614l-.416.746h-9.156a.562.562 0 0 0-.499.304L6.543 44.703l-4.414.683 13.117-27.887a.564.564 0 0 0-.511-.803H7.833l.378-.746h7.307zM28.336 2.343c-8.247 3.759-10.588 7.804-13.152 12.48H7.862a.566.566 0 0 0-.503.307l-.954 1.874a.554.554 0 0 0 .02.55c.102.167.284.27.48.27h6.94L.815 45.526a.576.576 0 0 0 .105.635l.263.272a.566.566 0 0 0 .493.167l5.313-.824a.564.564 0 0 0 .414-.298L21.78 17.824h9.154a.568.568 0 0 0 .493-.29l1.046-1.873a.554.554 0 0 0-.006-.56.564.564 0 0 0-.485-.279h-8.678l2.645-5.464c1.126-2.412 2.522-5.402 7.59-5.402.987 0 1.94.24 2.866.474.927.232 1.761.441 2.617.441 1.864 0 3.003-1.786 3.003-2.76 0-1.288-1.506-2.028-4.141-2.028-3.489 0-7.222 1.16-9.555 2.246l.006.014z">
    </path>
  </g>
</svg>